{
	"patcher" : 	{
		"fileversion" : 1,
		"appversion" : 		{
			"major" : 7,
			"minor" : 3,
			"revision" : 4,
			"architecture" : "x86",
			"modernui" : 1
		}
,
		"rect" : [ 192.0, 188.0, 904.0, 372.0 ],
		"bglocked" : 0,
		"openinpresentation" : 0,
		"default_fontsize" : 12.0,
		"default_fontface" : 0,
		"default_fontname" : "Arial",
		"gridonopen" : 2,
		"gridsize" : [ 15.0, 15.0 ],
		"gridsnaponopen" : 2,
		"objectsnaponopen" : 1,
		"statusbarvisible" : 2,
		"toolbarvisible" : 1,
		"lefttoolbarpinned" : 0,
		"toptoolbarpinned" : 0,
		"righttoolbarpinned" : 0,
		"bottomtoolbarpinned" : 0,
		"toolbars_unpinned_last_save" : 0,
		"tallnewobj" : 0,
		"boxanimatetime" : 200,
		"enablehscroll" : 1,
		"enablevscroll" : 1,
		"devicewidth" : 0.0,
		"description" : "",
		"digest" : "",
		"tags" : "",
		"style" : "",
		"subpatcher_template" : "gridded",
		"boxes" : [ 			{
				"box" : 				{
					"id" : "obj-2",
					"maxclass" : "comment",
					"numinlets" : 1,
					"numoutlets" : 0,
					"patching_rect" : [ 165.0, 224.0, 326.0, 20.0 ],
					"style" : "",
					"text" : "< o.gather gathers specified addresses and sends them out"
				}

			}
, 			{
				"box" : 				{
					"fontname" : "Arial",
					"fontsize" : 12.0,
					"id" : "obj-33",
					"maxclass" : "comment",
					"numinlets" : 1,
					"numoutlets" : 0,
					"patching_rect" : [ 40.0, 30.166656, 123.0, 20.0 ],
					"style" : "",
					"text" : "2. use said functions"
				}

			}
, 			{
				"box" : 				{
					"fontname" : "Arial",
					"fontsize" : 12.0,
					"id" : "obj-32",
					"maxclass" : "comment",
					"numinlets" : 1,
					"numoutlets" : 0,
					"patching_rect" : [ 320.0, 30.166656, 225.0, 20.0 ],
					"style" : "",
					"text" : "1. pass in a number of functions as a list"
				}

			}
, 			{
				"box" : 				{
					"fontname" : "Arial",
					"fontsize" : 12.0,
					"id" : "obj-30",
					"maxclass" : "newobj",
					"numinlets" : 1,
					"numoutlets" : 2,
					"outlettype" : [ "", "FullPacket" ],
					"patching_rect" : [ 30.0, 224.0, 115.0, 22.0 ],
					"style" : "",
					"text" : "o.gather /med /truth"
				}

			}
, 			{
				"box" : 				{
					"fontname" : "Arial",
					"fontsize" : 12.0,
					"id" : "obj-120",
					"maxclass" : "newobj",
					"numinlets" : 2,
					"numoutlets" : 1,
					"outlettype" : [ "FullPacket" ],
					"patching_rect" : [ 30.0, 150.0, 50.0, 22.0 ],
					"style" : "",
					"text" : "o.union"
				}

			}
, 			{
				"box" : 				{
					"fontface" : 0,
					"fontsize" : 11.0,
					"id" : "obj-119",
					"linecount" : 3,
					"maxclass" : "o.compose",
					"numinlets" : 2,
					"numoutlets" : 1,
					"outlettype" : [ "" ],
					"patching_rect" : [ 30.0, 60.0, 238.0, 48.0 ],
					"saved_bundle_data" : [ 35, 98, 117, 110, 100, 108, 101, 0, 0, 0, 0, 0, 0, 0, 0, 0, 0, 0, 0, 40, 47, 108, 105, 115, 116, 0, 0, 0, 44, 100, 105, 100, 105, 0, 0, 0, 63, -15, -8, 55, -76, -94, 51, -100, 0, 0, 0, 3, 64, 2, 127, -105, 36, 116, 83, -113, 0, 0, 0, 3, 0, 0, 0, 28, 47, 97, 0, 0, 44, 115, 115, 115, 115, 0, 0, 0, 97, 0, 0, 0, 98, 0, 0, 0, 99, 0, 0, 0, 97, 0, 0, 0, 0, 0, 0, 28, 47, 98, 0, 0, 44, 115, 115, 115, 115, 0, 0, 0, 97, 0, 0, 0, 98, 0, 0, 0, 99, 0, 0, 0, 97, 0, 0, 0 ],
					"saved_bundle_length" : 124,
					"text" : "/list : [1.1231, 3, 2.3123, 3],\n/a : [\"a\", \"b\", \"c\", \"a\"],\n/b : [\"a\", \"b\", \"c\", \"a\"]",
					"textcolor" : [ 0.188, 0.188, 0.188, 1.0 ]
				}

			}
, 			{
				"box" : 				{
					"fontface" : 0,
					"fontname" : "Arial",
					"fontsize" : 12.0,
					"id" : "obj-118",
					"maxclass" : "o.display",
					"numinlets" : 1,
					"numoutlets" : 1,
					"outlettype" : [ "" ],
					"patching_rect" : [ 30.0, 270.0, 343.0, 34.0 ],
					"textcolor" : [ 1.0, 1.0, 1.0, 1.0 ]
				}

			}
, 			{
				"box" : 				{
					"fontface" : 0,
					"fontsize" : 11.0,
					"id" : "obj-117",
					"maxclass" : "o.expr.codebox",
					"numinlets" : 1,
					"numoutlets" : 2,
					"outlettype" : [ "FullPacket", "FullPacket" ],
					"patching_rect" : [ 30.0, 180.0, 330.0, 32.0 ],
					"text" : "/med = /median(/list), /truth = /compare(/a, /b)",
					"textcolor" : [ 0.0, 0.0, 0.0, 1.0 ]
				}

			}
, 			{
				"box" : 				{
					"fontface" : 0,
					"fontsize" : 11.0,
					"id" : "obj-116",
					"linecount" : 2,
					"maxclass" : "o.compose",
					"numinlets" : 2,
					"numoutlets" : 1,
					"outlettype" : [ "" ],
					"patching_rect" : [ 315.0, 66.5, 548.0, 35.0 ],
					"saved_bundle_data" : [ 35, 98, 117, 110, 100, 108, 101, 0, 0, 0, 0, 0, 0, 0, 0, 0, 0, 0, 0, 36, 47, 109, 101, 100, 105, 97, 110, 0, 44, 115, 0, 0, 108, 97, 109, 98, 100, 97, 40, 91, 108, 93, 44, 32, 109, 101, 100, 105, 97, 110, 40, 108, 41, 41, 0, 0, 0, 0, 0, 84, 47, 99, 111, 109, 112, 97, 114, 101, 0, 0, 0, 0, 44, 115, 0, 0, 108, 97, 109, 98, 100, 97, 40, 91, 97, 44, 32, 98, 93, 44, 32, 108, 114, 101, 100, 117, 99, 101, 40, 97, 110, 100, 44, 32, 40, 108, 101, 110, 103, 116, 104, 40, 97, 41, 32, 61, 61, 32, 108, 101, 110, 103, 116, 104, 40, 98, 41, 41, 32, 38, 38, 32, 40, 97, 32, 61, 61, 32, 98, 41, 41, 41, 0, 0 ],
					"saved_bundle_length" : 144,
					"text" : "/median : \"lambda([l], median(l))\",\n/compare : \"lambda([a, b], lreduce(and, (length(a) == length(b)) && (a == b)))\"",
					"textcolor" : [ 0.188, 0.188, 0.188, 1.0 ]
				}

			}
 ],
		"lines" : [ 			{
				"patchline" : 				{
					"destination" : [ "obj-120", 1 ],
					"source" : [ "obj-116", 0 ]
				}

			}
, 			{
				"patchline" : 				{
					"destination" : [ "obj-30", 0 ],
					"source" : [ "obj-117", 0 ]
				}

			}
, 			{
				"patchline" : 				{
					"destination" : [ "obj-120", 0 ],
					"source" : [ "obj-119", 0 ]
				}

			}
, 			{
				"patchline" : 				{
					"destination" : [ "obj-117", 0 ],
					"source" : [ "obj-120", 0 ]
				}

			}
, 			{
				"patchline" : 				{
					"destination" : [ "obj-118", 0 ],
					"source" : [ "obj-30", 0 ]
				}

			}
 ],
		"dependency_cache" : [ 			{
				"name" : "o.gather.maxpat",
				"bootpath" : "~/Documents/Max 7/Packages/odot/patchers/namespace",
				"patcherrelativepath" : "../../../../odot/patchers/namespace",
				"type" : "JSON",
				"implicit" : 1
			}
, 			{
				"name" : "o.righttoleft.maxpat",
				"bootpath" : "~/Documents/Max 7/Packages/odot/patchers/ordering",
				"patcherrelativepath" : "../../../../odot/patchers/ordering",
				"type" : "JSON",
				"implicit" : 1
			}
, 			{
				"name" : "o.compose.mxo",
				"type" : "iLaX"
			}
, 			{
				"name" : "o.expr.codebox.mxo",
				"type" : "iLaX"
			}
, 			{
				"name" : "o.display.mxo",
				"type" : "iLaX"
			}
, 			{
				"name" : "o.union.mxo",
				"type" : "iLaX"
			}
, 			{
				"name" : "o.intersection.mxo",
				"type" : "iLaX"
			}
, 			{
				"name" : "o.collect.mxo",
				"type" : "iLaX"
			}
, 			{
				"name" : "o.difference.mxo",
				"type" : "iLaX"
			}
 ],
		"autosave" : 0,
		"bgfillcolor_type" : "gradient",
		"bgfillcolor_color1" : [ 0.376471, 0.384314, 0.4, 1.0 ],
		"bgfillcolor_color2" : [ 0.290196, 0.309804, 0.301961, 1.0 ],
		"bgfillcolor_color" : [ 0.290196, 0.309804, 0.301961, 1.0 ],
		"bgfillcolor_angle" : 270.0,
		"bgfillcolor_proportion" : 0.39
	}

}
