{
	"patcher" : 	{
		"fileversion" : 1,
		"appversion" : 		{
			"major" : 7,
			"minor" : 3,
			"revision" : 4,
			"architecture" : "x86",
			"modernui" : 1
		}
,
		"rect" : [ 62.0, 79.0, 1457.0, 963.0 ],
		"bglocked" : 0,
		"openinpresentation" : 0,
		"default_fontsize" : 12.0,
		"default_fontface" : 0,
		"default_fontname" : "Arial",
		"gridonopen" : 2,
		"gridsize" : [ 15.0, 15.0 ],
		"gridsnaponopen" : 2,
		"objectsnaponopen" : 1,
		"statusbarvisible" : 2,
		"toolbarvisible" : 1,
		"lefttoolbarpinned" : 0,
		"toptoolbarpinned" : 0,
		"righttoolbarpinned" : 0,
		"bottomtoolbarpinned" : 0,
		"toolbars_unpinned_last_save" : 0,
		"tallnewobj" : 0,
		"boxanimatetime" : 200,
		"enablehscroll" : 1,
		"enablevscroll" : 1,
		"devicewidth" : 0.0,
		"description" : "",
		"digest" : "",
		"tags" : "",
		"style" : "",
		"subpatcher_template" : "gridded",
		"boxes" : [ 			{
				"box" : 				{
					"id" : "obj-17",
					"maxclass" : "newobj",
					"numinlets" : 1,
					"numoutlets" : 1,
					"outlettype" : [ "FullPacket" ],
					"patcher" : 					{
						"fileversion" : 1,
						"appversion" : 						{
							"major" : 7,
							"minor" : 3,
							"revision" : 4,
							"architecture" : "x86",
							"modernui" : 1
						}
,
						"rect" : [ 59.0, 104.0, 640.0, 480.0 ],
						"bglocked" : 0,
						"openinpresentation" : 0,
						"default_fontsize" : 12.0,
						"default_fontface" : 0,
						"default_fontname" : "Arial",
						"gridonopen" : 1,
						"gridsize" : [ 15.0, 15.0 ],
						"gridsnaponopen" : 1,
						"objectsnaponopen" : 1,
						"statusbarvisible" : 2,
						"toolbarvisible" : 1,
						"lefttoolbarpinned" : 0,
						"toptoolbarpinned" : 0,
						"righttoolbarpinned" : 0,
						"bottomtoolbarpinned" : 0,
						"toolbars_unpinned_last_save" : 0,
						"tallnewobj" : 0,
						"boxanimatetime" : 200,
						"enablehscroll" : 1,
						"enablevscroll" : 1,
						"devicewidth" : 0.0,
						"description" : "",
						"digest" : "",
						"tags" : "",
						"style" : "",
						"subpatcher_template" : "gridded",
						"boxes" : [ 							{
								"box" : 								{
									"id" : "obj-14",
									"maxclass" : "newobj",
									"numinlets" : 1,
									"numoutlets" : 1,
									"outlettype" : [ "FullPacket" ],
									"patching_rect" : [ 50.0, 241.0, 85.0, 22.0 ],
									"style" : "",
									"text" : "o.genrand /r/2"
								}

							}
, 							{
								"box" : 								{
									"id" : "obj-51",
									"maxclass" : "newobj",
									"numinlets" : 1,
									"numoutlets" : 2,
									"outlettype" : [ "", "FullPacket" ],
									"patching_rect" : [ 50.0, 100.0, 61.0, 22.0 ],
									"style" : "",
									"text" : "o.route /1"
								}

							}
, 							{
								"box" : 								{
									"id" : "obj-41",
									"maxclass" : "newobj",
									"numinlets" : 1,
									"numoutlets" : 1,
									"outlettype" : [ "FullPacket" ],
									"patching_rect" : [ 50.0, 211.0, 85.0, 22.0 ],
									"style" : "",
									"text" : "o.genrand /r/1"
								}

							}
, 							{
								"box" : 								{
									"id" : "obj-39",
									"maxclass" : "newobj",
									"numinlets" : 2,
									"numoutlets" : 1,
									"outlettype" : [ "FullPacket" ],
									"patching_rect" : [ 50.0, 183.569427, 102.0, 22.0 ],
									"style" : "",
									"text" : "o.var"
								}

							}
, 							{
								"box" : 								{
									"id" : "obj-38",
									"maxclass" : "newobj",
									"numinlets" : 2,
									"numoutlets" : 1,
									"outlettype" : [ "bang" ],
									"patching_rect" : [ 50.0, 156.138885, 58.0, 22.0 ],
									"style" : "",
									"text" : "metro 25"
								}

							}
, 							{
								"box" : 								{
									"id" : "obj-36",
									"maxclass" : "newobj",
									"numinlets" : 1,
									"numoutlets" : 2,
									"outlettype" : [ "", "FullPacket" ],
									"patching_rect" : [ 50.0, 128.708313, 102.0, 22.0 ],
									"style" : "",
									"text" : "o.route /metro/on"
								}

							}
, 							{
								"box" : 								{
									"fontface" : 0,
									"fontsize" : 10.0,
									"id" : "obj-25",
									"linecount" : 6,
									"maxclass" : "o.expr.codebox",
									"numinlets" : 1,
									"numoutlets" : 2,
									"outlettype" : [ "FullPacket", "FullPacket" ],
									"patching_rect" : [ 50.0, 271.0, 295.0, 86.0 ],
									"text" : "/dur/ms = 100,\n/buffer = \"wb\",\n/start/phase += (/r/1 * 0.01),\n/balance = (/r/2 * 2.) - 1.,\n/cutoff = scale(/gain, 0., 2., 300., 4000.),\ndelete(/r/1), delete(/r/2)",
									"textcolor" : [ 0.0, 0.0, 0.0, 1.0 ]
								}

							}
, 							{
								"box" : 								{
									"comment" : "",
									"id" : "obj-4",
									"index" : 1,
									"maxclass" : "inlet",
									"numinlets" : 0,
									"numoutlets" : 1,
									"outlettype" : [ "FullPacket" ],
									"patching_rect" : [ 50.0, 40.0, 30.0, 30.0 ],
									"style" : ""
								}

							}
, 							{
								"box" : 								{
									"comment" : "",
									"id" : "obj-16",
									"index" : 1,
									"maxclass" : "outlet",
									"numinlets" : 1,
									"numoutlets" : 0,
									"patching_rect" : [ 50.0, 417.0, 30.0, 30.0 ],
									"style" : ""
								}

							}
 ],
						"lines" : [ 							{
								"patchline" : 								{
									"destination" : [ "obj-25", 0 ],
									"source" : [ "obj-14", 0 ]
								}

							}
, 							{
								"patchline" : 								{
									"destination" : [ "obj-16", 0 ],
									"source" : [ "obj-25", 0 ]
								}

							}
, 							{
								"patchline" : 								{
									"destination" : [ "obj-38", 0 ],
									"source" : [ "obj-36", 0 ]
								}

							}
, 							{
								"patchline" : 								{
									"destination" : [ "obj-39", 1 ],
									"source" : [ "obj-36", 1 ]
								}

							}
, 							{
								"patchline" : 								{
									"destination" : [ "obj-39", 0 ],
									"source" : [ "obj-38", 0 ]
								}

							}
, 							{
								"patchline" : 								{
									"destination" : [ "obj-41", 0 ],
									"source" : [ "obj-39", 0 ]
								}

							}
, 							{
								"patchline" : 								{
									"destination" : [ "obj-51", 0 ],
									"source" : [ "obj-4", 0 ]
								}

							}
, 							{
								"patchline" : 								{
									"destination" : [ "obj-14", 0 ],
									"source" : [ "obj-41", 0 ]
								}

							}
, 							{
								"patchline" : 								{
									"destination" : [ "obj-36", 0 ],
									"source" : [ "obj-51", 0 ]
								}

							}
 ]
					}
,
					"patching_rect" : [ 90.0, 476.0, 105.0, 22.0 ],
					"saved_object_attributes" : 					{
						"description" : "",
						"digest" : "",
						"globalpatchername" : "",
						"style" : "",
						"tags" : ""
					}
,
					"style" : "",
					"text" : "p o.grainplay.note"
				}

			}
, 			{
				"box" : 				{
					"fontface" : 0,
					"fontsize" : 10.0,
					"id" : "obj-23",
					"linecount" : 4,
					"maxclass" : "o.expr.codebox",
					"numinlets" : 1,
					"numoutlets" : 2,
					"outlettype" : [ "FullPacket", "FullPacket" ],
					"patching_rect" : [ 975.0, 235.708313, 613.0, 64.0 ],
					"text" : "/num/fingers = length(/touch/finger_stack),\n/xd = /touch/move/x[[0]] - /touch/centroid[[0]], \n/yd = /touch/move/y[[0]] - /touch/centroid[[1]],\n/distance/from/center = sqrt(/xd*/xd + /yd*/yd)",
					"textcolor" : [ 0.0, 0.0, 0.0, 1.0 ]
				}

			}
, 			{
				"box" : 				{
					"fontface" : 0,
					"fontsize" : 10.0,
					"id" : "obj-2",
					"linecount" : 7,
					"maxclass" : "o.expr.codebox",
					"numinlets" : 1,
					"numoutlets" : 2,
					"outlettype" : [ "FullPacket", "FullPacket" ],
					"patching_rect" : [ 450.0, 314.0, 613.0, 98.0 ],
					"presentation_rect" : [ 340.0, 308.708313, 0.0, 0.0 ],
					"text" : "/num/fingers = length(/touch/finger_stack),\n/distances = map(\n  lambda([x, y], \n      sqrt(pow(x - /touch/centroid[[0]], 2) + pow(y - /touch/centroid[[1]], 2))\n  ), /touch/move/x, /touch/move/y\n), \n/hand/spread = sum(/distances) / length(/d)",
					"textcolor" : [ 0.0, 0.0, 0.0, 1.0 ]
				}

			}
, 			{
				"box" : 				{
					"fontface" : 0,
					"fontsize" : 10.0,
					"id" : "obj-21",
					"linecount" : 11,
					"maxclass" : "o.expr.codebox",
					"numinlets" : 1,
					"numoutlets" : 2,
					"outlettype" : [ "FullPacket", "FullPacket" ],
					"patching_rect" : [ 510.0, 88.5, 362.0, 143.0 ],
					"text" : "/num/fingers = length(/touch/finger_stack),\n/idx = aseq(0, length(/touch/state) - 1),\nmap(\n  lambda([t, tmx, g, i], \n    progn(\n      assign(\"/\" + i + \"/metro/on\", t), \n      assign(\"/\" + i + \"/start/phase\", tmx), \n      assign(\"/\" + i + \"/gain\", g)\n    )\n  ), /touch/state, /touch/move/x, /touch/move/y, /idx  \n)",
					"textcolor" : [ 0.0, 0.0, 0.0, 1.0 ]
				}

			}
, 			{
				"box" : 				{
					"id" : "obj-20",
					"maxclass" : "comment",
					"numinlets" : 1,
					"numoutlets" : 0,
					"patching_rect" : [ 1050.0, 150.0, 214.0, 20.0 ],
					"style" : "",
					"text" : "try this using assigntobundlemember()"
				}

			}
, 			{
				"box" : 				{
					"fontface" : 0,
					"fontsize" : 10.0,
					"id" : "obj-18",
					"linecount" : 12,
					"maxclass" : "o.expr.codebox",
					"numinlets" : 1,
					"numoutlets" : 2,
					"outlettype" : [ "FullPacket", "FullPacket" ],
					"patching_rect" : [ 1050.0, 75.0, 410.0, 154.0 ],
					"text" : "/num/fingers = length(/touch/finger_stack),\n/idx = aseq(0, length(/touch/state) - 1),\n/1 = [],\nmap(\n  lambda([t, tmx, g, i], \n    progn(\n      assigntobundlemember(/1, \"/\" + i + \"/metro/on\", t), \n      assigntobundlemember(/1, \"/\" + i + \"/start/phase\", tmx), \n      assigntobundlemember(/1, \"/\" + i + \"/gain\", g)\n    )\n  ), /touch/state, /touch/move/x, /touch/move/y, /idx  \n)",
					"textcolor" : [ 0.0, 0.0, 0.0, 1.0 ]
				}

			}
, 			{
				"box" : 				{
					"fontface" : 0,
					"fontsize" : 12.0,
					"id" : "obj-7",
					"maxclass" : "o.display",
					"numinlets" : 1,
					"numoutlets" : 1,
					"outlettype" : [ "" ],
					"patching_rect" : [ 450.0, 470.0, 798.0, 34.0 ],
					"textcolor" : [ 1.0, 1.0, 1.0, 1.0 ]
				}

			}
, 			{
				"box" : 				{
					"id" : "obj-15",
					"maxclass" : "button",
					"numinlets" : 1,
					"numoutlets" : 1,
					"outlettype" : [ "bang" ],
					"patching_rect" : [ 45.0, 129.0, 24.0, 24.0 ],
					"style" : ""
				}

			}
, 			{
				"box" : 				{
					"id" : "obj-6",
					"maxclass" : "newobj",
					"numinlets" : 1,
					"numoutlets" : 0,
					"patcher" : 					{
						"fileversion" : 1,
						"appversion" : 						{
							"major" : 7,
							"minor" : 3,
							"revision" : 4,
							"architecture" : "x86",
							"modernui" : 1
						}
,
						"rect" : [ 59.0, 104.0, 640.0, 480.0 ],
						"bglocked" : 0,
						"openinpresentation" : 0,
						"default_fontsize" : 12.0,
						"default_fontface" : 0,
						"default_fontname" : "Arial",
						"gridonopen" : 1,
						"gridsize" : [ 15.0, 15.0 ],
						"gridsnaponopen" : 1,
						"objectsnaponopen" : 1,
						"statusbarvisible" : 2,
						"toolbarvisible" : 1,
						"lefttoolbarpinned" : 0,
						"toptoolbarpinned" : 0,
						"righttoolbarpinned" : 0,
						"bottomtoolbarpinned" : 0,
						"toolbars_unpinned_last_save" : 0,
						"tallnewobj" : 0,
						"boxanimatetime" : 200,
						"enablehscroll" : 1,
						"enablevscroll" : 1,
						"devicewidth" : 0.0,
						"description" : "",
						"digest" : "",
						"tags" : "",
						"style" : "",
						"subpatcher_template" : "gridded",
						"boxes" : [ 							{
								"box" : 								{
									"id" : "obj-35",
									"maxclass" : "toggle",
									"numinlets" : 1,
									"numoutlets" : 1,
									"outlettype" : [ "int" ],
									"parameter_enable" : 0,
									"patching_rect" : [ 50.0, 100.0, 24.0, 24.0 ],
									"style" : ""
								}

							}
, 							{
								"box" : 								{
									"id" : "obj-28",
									"maxclass" : "newobj",
									"numinlets" : 2,
									"numoutlets" : 1,
									"outlettype" : [ "" ],
									"patching_rect" : [ 50.0, 160.0, 34.0, 22.0 ],
									"style" : "",
									"text" : "gate"
								}

							}
, 							{
								"box" : 								{
									"fontface" : 0,
									"fontsize" : 12.0,
									"id" : "obj-26",
									"linecount" : 13,
									"maxclass" : "o.compose",
									"numinlets" : 2,
									"numoutlets" : 1,
									"outlettype" : [ "" ],
									"patching_rect" : [ 50.0, 187.638885, 844.0, 187.0 ],
									"saved_bundle_data" : [ 35, 98, 117, 110, 100, 108, 101, 0, 0, 0, 0, 0, 0, 0, 0, 0, 0, 0, 0, 120, 47, 116, 111, 117, 99, 104, 47, 109, 111, 118, 101, 47, 120, 0, 0, 0, 44, 100, 100, 100, 100, 100, 100, 100, 100, 100, 100, 100, 0, 0, 0, 0, 63, -37, -72, 35, -32, 0, 0, 0, 63, -47, -117, 58, 96, 0, 0, 0, 63, -59, -63, 31, -128, 0, 0, 0, 63, -32, 125, -63, 32, 0, 0, 0, 63, -83, -63, 31, -128, 0, 0, 0, 0, 0, 0, 0, 0, 0, 0, 0, 0, 0, 0, 0, 0, 0, 0, 0, 0, 0, 0, 0, 0, 0, 0, 0, 0, 0, 0, 0, 0, 0, 0, 0, 0, 0, 0, 0, 0, 0, 0, 0, 0, 0, 0, 0, 0, 0, 0, 0, 0, 0, 0, 120, 47, 116, 111, 117, 99, 104, 47, 109, 111, 118, 101, 47, 121, 0, 0, 0, 44, 100, 100, 100, 100, 100, 100, 100, 100, 100, 100, 100, 0, 0, 0, 0, 63, -25, 116, -2, -64, 0, 0, 0, 63, -24, 33, -6, -96, 0, 0, 0, 63, -30, 37, -41, 0, 0, 0, 0, 63, -64, -102, 115, 0, 0, 0, 0, 63, -42, -106, -106, -128, 0, 0, 0, 0, 0, 0, 0, 0, 0, 0, 0, 0, 0, 0, 0, 0, 0, 0, 0, 0, 0, 0, 0, 0, 0, 0, 0, 0, 0, 0, 0, 0, 0, 0, 0, 0, 0, 0, 0, 0, 0, 0, 0, 0, 0, 0, 0, 0, 0, 0, 0, 0, 0, 0, 76, 47, 116, 111, 117, 99, 104, 47, 115, 116, 97, 116, 101, 0, 0, 0, 0, 44, 105, 105, 105, 105, 105, 105, 105, 105, 105, 105, 105, 0, 0, 0, 0, 0, 0, 0, 1, 0, 0, 0, 1, 0, 0, 0, 1, 0, 0, 0, 1, 0, 0, 0, 1, 0, 0, 0, 0, 0, 0, 0, 0, 0, 0, 0, 0, 0, 0, 0, 0, 0, 0, 0, 0, 0, 0, 0, 0, 0, 0, 0, 36, 47, 116, 111, 117, 99, 104, 47, 99, 101, 110, 116, 114, 111, 105, 100, 0, 44, 100, 100, 0, 63, -46, -111, -124, 32, 0, 0, 0, 63, -32, 60, -117, 64, 0, 0, 0, 0, 0, 0, 120, 47, 116, 111, 117, 99, 104, 47, 114, 97, 100, 105, 117, 115, 0, 0, 0, 44, 100, 100, 100, 100, 100, 100, 100, 100, 100, 100, 100, 0, 0, 0, 0, 63, -45, 40, 51, 0, 0, 0, 0, 63, -49, -75, -33, -96, 0, 0, 0, 63, -58, 127, -106, -96, 0, 0, 0, 63, -33, 67, 90, -128, 0, 0, 0, 63, -42, -79, 40, 32, 0, 0, 0, 63, -28, -88, 67, -32, 0, 0, 0, 63, -28, -88, 67, -32, 0, 0, 0, 63, -28, -88, 67, -32, 0, 0, 0, 63, -28, -88, 67, -32, 0, 0, 0, 63, -28, -88, 67, -32, 0, 0, 0, 63, -28, -88, 67, -32, 0, 0, 0, 0, 0, 0, 120, 47, 116, 111, 117, 99, 104, 47, 97, 110, 103, 108, 101, 0, 0, 0, 0, 44, 100, 100, 100, 100, 100, 100, 100, 100, 100, 100, 100, 0, 0, 0, 0, 63, -21, 82, -41, 96, 0, 0, 0, 63, -6, -114, -115, 0, 0, 0, 0, 64, 6, 91, -25, 0, 0, 0, 0, -65, -20, 72, 37, 32, 0, 0, 0, -64, 5, -122, -19, 0, 0, 0, 0, -64, 1, -27, -8, -128, 0, 0, 0, -64, 1, -27, -8, -128, 0, 0, 0, -64, 1, -27, -8, -128, 0, 0, 0, -64, 1, -27, -8, -128, 0, 0, 0, -64, 1, -27, -8, -128, 0, 0, 0, -64, 1, -27, -8, -128, 0, 0, 0, 0, 0, 0, 120, 47, 116, 111, 117, 99, 104, 47, 100, 111, 119, 110, 47, 120, 0, 0, 0, 44, 100, 100, 100, 100, 100, 100, 100, 100, 100, 100, 100, 0, 0, 0, 0, 63, -36, -23, -117, 64, 0, 0, 0, 63, -45, 40, 107, -64, 0, 0, 0, 63, -56, -5, -126, 64, 0, 0, 0, 63, -31, 58, 98, -64, 0, 0, 0, 63, -85, -126, 62, -32, 0, 0, 0, 0, 0, 0, 0, 0, 0, 0, 0, 0, 0, 0, 0, 0, 0, 0, 0, 0, 0, 0, 0, 0, 0, 0, 0, 0, 0, 0, 0, 0, 0, 0, 0, 0, 0, 0, 0, 0, 0, 0, 0, 0, 0, 0, 0, 0, 0, 0, 0, 0, 0, 0, 120, 47, 116, 111, 117, 99, 104, 47, 100, 111, 119, 110, 47, 121, 0, 0, 0, 44, 100, 100, 100, 100, 100, 100, 100, 100, 100, 100, 100, 0, 0, 0, 0, 63, -26, -81, 76, -64, 0, 0, 0, 63, -26, -32, -71, 64, 0, 0, 0, 63, -31, -62, -2, 0, 0, 0, 0, 63, -58, 101, 42, 0, 0, 0, 0, 63, -42, 27, 7, 64, 0, 0, 0, 0, 0, 0, 0, 0, 0, 0, 0, 0, 0, 0, 0, 0, 0, 0, 0, 0, 0, 0, 0, 0, 0, 0, 0, 0, 0, 0, 0, 0, 0, 0, 0, 0, 0, 0, 0, 0, 0, 0, 0, 0, 0, 0, 0, 0, 0, 0, 0, 0, 0, 0, 48, 47, 116, 111, 117, 99, 104, 47, 102, 105, 110, 103, 101, 114, 95, 115, 116, 97, 99, 107, 0, 44, 105, 105, 105, 105, 105, 0, 0, 0, 0, 0, 0, 0, 0, 0, 1, 0, 0, 0, 2, 0, 0, 0, 3, 0, 0, 0, 4, 0, 0, 0, 116, 47, 116, 111, 117, 99, 104, 47, 117, 112, 47, 120, 0, 44, 100, 100, 100, 100, 100, 100, 100, 100, 100, 100, 100, 0, 0, 0, 0, 63, -36, -23, -117, 64, 0, 0, 0, 63, -45, 40, 107, -64, 0, 0, 0, 63, -56, -5, -126, 64, 0, 0, 0, 63, -31, 67, 94, 96, 0, 0, 0, 63, -84, -95, -81, 32, 0, 0, 0, 0, 0, 0, 0, 0, 0, 0, 0, 0, 0, 0, 0, 0, 0, 0, 0, 0, 0, 0, 0, 0, 0, 0, 0, 0, 0, 0, 0, 0, 0, 0, 0, 0, 0, 0, 0, 0, 0, 0, 0, 0, 0, 0, 0, 0, 0, 0, 0, 0, 0, 0, 116, 47, 116, 111, 117, 99, 104, 47, 117, 112, 47, 121, 0, 44, 100, 100, 100, 100, 100, 100, 100, 100, 100, 100, 100, 0, 0, 0, 0, 63, -26, -81, 76, -64, 0, 0, 0, 63, -26, -32, -71, 64, 0, 0, 0, 63, -31, -49, 89, 64, 0, 0, 0, 63, -57, 42, -36, 0, 0, 0, 0, 63, -42, -81, 76, -64, 0, 0, 0, 0, 0, 0, 0, 0, 0, 0, 0, 0, 0, 0, 0, 0, 0, 0, 0, 0, 0, 0, 0, 0, 0, 0, 0, 0, 0, 0, 0, 0, 0, 0, 0, 0, 0, 0, 0, 0, 0, 0, 0, 0, 0, 0, 0, 0, 0, 0, 0 ],
									"saved_bundle_length" : 1172,
									"text" : "/touch/move/x : [0.433114, 0.274123, 0.169956, 0.515351, 0.058114, 0., 0., 0., 0., 0., 0.],\n/touch/move/y : [0.733032, 0.754148, 0.567119, 0.129713, 0.352941, 0., 0., 0., 0., 0., 0.],\n/touch/state : [1, 1, 1, 1, 1, 0, 0, 0, 0, 0, 0],\n/touch/centroid : [0.290132, 0.507391],\n/touch/radius : [0.299329, 0.247738, 0.175769, 0.488486, 0.354563, 0.64554, 0.64554, 0.64554, 0.64554, 0.64554, 0.64554],\n/touch/angle : [0.853862, 1.6598, 2.79487, -0.883807, -2.69088, -2.23729, -2.23729, -2.23729, -2.23729, -2.23729, -2.23729],\n/touch/down/x : [0.451754, 0.299342, 0.195175, 0.538377, 0.0537281, 0., 0., 0., 0., 0., 0.],\n/touch/down/y : [0.708899, 0.714932, 0.555053, 0.174962, 0.3454, 0., 0., 0., 0., 0., 0.],\n/touch/finger_stack : [0, 1, 2, 3, 4],\n/touch/up/x : [0.451754, 0.299342, 0.195175, 0.539474, 0.0559211, 0., 0., 0., 0., 0., 0.],\n/touch/up/y : [0.708899, 0.714932, 0.556561, 0.180995, 0.354449, 0., 0., 0., 0., 0., 0.]",
									"textcolor" : [ 0.188, 0.188, 0.188, 1.0 ]
								}

							}
, 							{
								"box" : 								{
									"comment" : "",
									"id" : "obj-4",
									"index" : 1,
									"maxclass" : "inlet",
									"numinlets" : 0,
									"numoutlets" : 1,
									"outlettype" : [ "" ],
									"patching_rect" : [ 65.0, 40.0, 30.0, 30.0 ],
									"style" : ""
								}

							}
 ],
						"lines" : [ 							{
								"patchline" : 								{
									"destination" : [ "obj-26", 1 ],
									"source" : [ "obj-28", 0 ]
								}

							}
, 							{
								"patchline" : 								{
									"destination" : [ "obj-28", 0 ],
									"source" : [ "obj-35", 0 ]
								}

							}
, 							{
								"patchline" : 								{
									"destination" : [ "obj-28", 1 ],
									"source" : [ "obj-4", 0 ]
								}

							}
 ]
					}
,
					"patching_rect" : [ 345.0, 45.0, 63.0, 22.0 ],
					"saved_object_attributes" : 					{
						"description" : "",
						"digest" : "",
						"globalpatchername" : "",
						"style" : "",
						"tags" : ""
					}
,
					"style" : "",
					"text" : "p view_all"
				}

			}
, 			{
				"box" : 				{
					"id" : "obj-40",
					"maxclass" : "newobj",
					"numinlets" : 1,
					"numoutlets" : 2,
					"outlettype" : [ "", "bang" ],
					"patching_rect" : [ 1470.0, 531.0, 136.0, 22.0 ],
					"saved_object_attributes" : 					{
						"embed" : 0
					}
,
					"style" : "",
					"text" : "polybuffer~ lemurgrains"
				}

			}
, 			{
				"box" : 				{
					"id" : "obj-13",
					"maxclass" : "message",
					"numinlets" : 2,
					"numoutlets" : 1,
					"outlettype" : [ "" ],
					"patching_rect" : [ 1545.0, 570.0, 29.5, 22.0 ],
					"style" : "",
					"text" : "6"
				}

			}
, 			{
				"box" : 				{
					"id" : "obj-12",
					"maxclass" : "message",
					"numinlets" : 2,
					"numoutlets" : 1,
					"outlettype" : [ "" ],
					"patching_rect" : [ 1455.0, 570.0, 29.5, 22.0 ],
					"style" : "",
					"text" : "0"
				}

			}
, 			{
				"box" : 				{
					"id" : "obj-9",
					"maxclass" : "message",
					"numinlets" : 2,
					"numoutlets" : 1,
					"outlettype" : [ "" ],
					"patching_rect" : [ 1500.0, 570.0, 35.0, 22.0 ],
					"style" : "",
					"text" : "-127"
				}

			}
, 			{
				"box" : 				{
					"id" : "obj-3",
					"linecount" : 8,
					"maxclass" : "comment",
					"numinlets" : 1,
					"numoutlets" : 0,
					"patching_rect" : [ 1463.0, 195.0, 150.0, 114.0 ],
					"style" : "",
					"text" : "grain params:\n\ngain\nduration\noffset\npanning\nfilter cutoff\nperiodicity of metro"
				}

			}
, 			{
				"box" : 				{
					"format" : 6,
					"id" : "obj-73",
					"maxclass" : "flonum",
					"numinlets" : 1,
					"numoutlets" : 2,
					"outlettype" : [ "", "bang" ],
					"parameter_enable" : 0,
					"patching_rect" : [ 1455.0, 675.0, 84.0, 22.0 ],
					"style" : ""
				}

			}
, 			{
				"box" : 				{
					"format" : 6,
					"id" : "obj-74",
					"maxclass" : "flonum",
					"numinlets" : 1,
					"numoutlets" : 2,
					"outlettype" : [ "", "bang" ],
					"parameter_enable" : 0,
					"patching_rect" : [ 1455.0, 615.0, 50.0, 22.0 ],
					"style" : ""
				}

			}
, 			{
				"box" : 				{
					"format" : 6,
					"id" : "obj-70",
					"maxclass" : "flonum",
					"numinlets" : 1,
					"numoutlets" : 2,
					"outlettype" : [ "", "bang" ],
					"parameter_enable" : 0,
					"patching_rect" : [ 1590.0, 675.0, 50.0, 22.0 ],
					"style" : ""
				}

			}
, 			{
				"box" : 				{
					"format" : 6,
					"id" : "obj-68",
					"maxclass" : "flonum",
					"numinlets" : 1,
					"numoutlets" : 2,
					"outlettype" : [ "", "bang" ],
					"parameter_enable" : 0,
					"patching_rect" : [ 1590.0, 615.0, 50.0, 22.0 ],
					"style" : ""
				}

			}
, 			{
				"box" : 				{
					"id" : "obj-66",
					"maxclass" : "newobj",
					"numinlets" : 1,
					"numoutlets" : 1,
					"outlettype" : [ "" ],
					"patching_rect" : [ 1590.0, 645.0, 41.0, 22.0 ],
					"style" : "",
					"text" : "atodb"
				}

			}
, 			{
				"box" : 				{
					"id" : "obj-65",
					"maxclass" : "newobj",
					"numinlets" : 1,
					"numoutlets" : 1,
					"outlettype" : [ "" ],
					"patching_rect" : [ 1455.0, 645.0, 41.0, 22.0 ],
					"style" : "",
					"text" : "dbtoa"
				}

			}
, 			{
				"box" : 				{
					"fontface" : 0,
					"fontsize" : 10.0,
					"id" : "obj-57",
					"maxclass" : "o.display",
					"numinlets" : 1,
					"numoutlets" : 1,
					"outlettype" : [ "" ],
					"patching_rect" : [ 930.0, 75.0, 315.0, 32.0 ],
					"textcolor" : [ 1.0, 1.0, 1.0, 1.0 ]
				}

			}
, 			{
				"box" : 				{
					"id" : "obj-56",
					"maxclass" : "newobj",
					"numinlets" : 1,
					"numoutlets" : 2,
					"outlettype" : [ "", "FullPacket" ],
					"patching_rect" : [ 930.0, 45.0, 117.0, 22.0 ],
					"style" : "",
					"text" : "o.select /touch/state"
				}

			}
, 			{
				"box" : 				{
					"id" : "obj-30",
					"maxclass" : "comment",
					"numinlets" : 1,
					"numoutlets" : 0,
					"patching_rect" : [ 1590.5, 262.0, 190.0, 20.0 ],
					"style" : "",
					"text" : "dynamic creation of sub-bundles?"
				}

			}
, 			{
				"box" : 				{
					"id" : "obj-29",
					"maxclass" : "comment",
					"numinlets" : 1,
					"numoutlets" : 0,
					"patching_rect" : [ 1590.5, 232.0, 150.0, 20.0 ],
					"style" : "",
					"text" : "assigntobundlemember()"
				}

			}
, 			{
				"box" : 				{
					"id" : "obj-27",
					"maxclass" : "newobj",
					"numinlets" : 1,
					"numoutlets" : 2,
					"outlettype" : [ "", "FullPacket" ],
					"patching_rect" : [ 90.0, 100.0, 277.0, 22.0 ],
					"style" : "",
					"text" : "o.gather /touch/state /touch/move/x /touch/move/y"
				}

			}
, 			{
				"box" : 				{
					"id" : "obj-8",
					"maxclass" : "message",
					"numinlets" : 2,
					"numoutlets" : 1,
					"outlettype" : [ "" ],
					"patching_rect" : [ 240.0, 705.0, 37.0, 22.0 ],
					"style" : "",
					"text" : "open"
				}

			}
, 			{
				"box" : 				{
					"buffername" : "wb",
					"chanoffset" : 2,
					"id" : "obj-37",
					"maxclass" : "waveform~",
					"numinlets" : 5,
					"numoutlets" : 6,
					"outlettype" : [ "float", "float", "float", "float", "list", "" ],
					"patching_rect" : [ 1485.0, 426.0, 256.0, 64.0 ],
					"style" : ""
				}

			}
, 			{
				"box" : 				{
					"id" : "obj-34",
					"maxclass" : "newobj",
					"numinlets" : 1,
					"numoutlets" : 1,
					"outlettype" : [ "" ],
					"patching_rect" : [ 90.0, 525.0, 81.0, 22.0 ],
					"style" : "",
					"text" : "prepend note"
				}

			}
, 			{
				"box" : 				{
					"id" : "obj-33",
					"maxclass" : "message",
					"numinlets" : 2,
					"numoutlets" : 1,
					"outlettype" : [ "" ],
					"patching_rect" : [ 252.0, 525.0, 47.0, 22.0 ],
					"style" : "",
					"text" : "open 1"
				}

			}
, 			{
				"box" : 				{
					"id" : "obj-31",
					"maxclass" : "newobj",
					"numinlets" : 1,
					"numoutlets" : 2,
					"outlettype" : [ "signal", "signal" ],
					"patching_rect" : [ 90.0, 570.0, 209.0, 22.0 ],
					"style" : "",
					"text" : "poly~ grainplay @voices 30 @steal 1"
				}

			}
, 			{
				"box" : 				{
					"id" : "obj-10",
					"maxclass" : "message",
					"numinlets" : 2,
					"numoutlets" : 1,
					"outlettype" : [ "" ],
					"patching_rect" : [ 180.0, 764.0, 50.0, 22.0 ],
					"style" : "",
					"text" : "replace"
				}

			}
, 			{
				"box" : 				{
					"id" : "obj-11",
					"maxclass" : "newobj",
					"numinlets" : 1,
					"numoutlets" : 2,
					"outlettype" : [ "float", "bang" ],
					"patching_rect" : [ 180.0, 788.0, 182.0, 22.0 ],
					"style" : "",
					"text" : "buffer~ wb WOMBLITZ.wav -1 2"
				}

			}
, 			{
				"box" : 				{
					"buffername" : "wb",
					"id" : "obj-62",
					"maxclass" : "waveform~",
					"numinlets" : 5,
					"numoutlets" : 6,
					"outlettype" : [ "float", "float", "float", "float", "list", "" ],
					"patching_rect" : [ 1485.0, 360.0, 256.0, 64.0 ],
					"style" : ""
				}

			}
, 			{
				"box" : 				{
					"id" : "obj-61",
					"maxclass" : "message",
					"numinlets" : 2,
					"numoutlets" : 1,
					"outlettype" : [ "" ],
					"patching_rect" : [ 1485.0, 328.0, 90.0, 22.0 ],
					"style" : "",
					"text" : "normalize 0.95"
				}

			}
, 			{
				"box" : 				{
					"id" : "obj-47",
					"maxclass" : "ezdac~",
					"numinlets" : 2,
					"numoutlets" : 0,
					"patching_rect" : [ 90.0, 765.0, 45.0, 45.0 ],
					"style" : ""
				}

			}
, 			{
				"box" : 				{
					"id" : "obj-46",
					"maxclass" : "live.gain~",
					"numinlets" : 2,
					"numoutlets" : 5,
					"outlettype" : [ "signal", "signal", "", "float", "list" ],
					"parameter_enable" : 1,
					"patching_rect" : [ 90.0, 645.0, 123.0, 105.0 ],
					"saved_attribute_attributes" : 					{
						"valueof" : 						{
							"parameter_longname" : "live.gain~",
							"parameter_shortname" : "live.gain~",
							"parameter_type" : 0,
							"parameter_mmin" : -70.0,
							"parameter_mmax" : 6.0,
							"parameter_initial" : [ 0.0 ],
							"parameter_unitstyle" : 4
						}

					}
,
					"varname" : "live.gain~"
				}

			}
, 			{
				"box" : 				{
					"id" : "obj-45",
					"maxclass" : "newobj",
					"numinlets" : 1,
					"numoutlets" : 1,
					"outlettype" : [ "signal" ],
					"patcher" : 					{
						"fileversion" : 1,
						"appversion" : 						{
							"major" : 7,
							"minor" : 3,
							"revision" : 4,
							"architecture" : "x86",
							"modernui" : 1
						}
,
						"rect" : [ 941.0, 160.0, 945.0, 547.0 ],
						"bglocked" : 0,
						"openinpresentation" : 0,
						"default_fontsize" : 12.0,
						"default_fontface" : 0,
						"default_fontname" : "Arial",
						"gridonopen" : 1,
						"gridsize" : [ 15.0, 15.0 ],
						"gridsnaponopen" : 1,
						"objectsnaponopen" : 1,
						"statusbarvisible" : 2,
						"toolbarvisible" : 1,
						"lefttoolbarpinned" : 0,
						"toptoolbarpinned" : 0,
						"righttoolbarpinned" : 0,
						"bottomtoolbarpinned" : 0,
						"toolbars_unpinned_last_save" : 0,
						"tallnewobj" : 0,
						"boxanimatetime" : 200,
						"enablehscroll" : 1,
						"enablevscroll" : 1,
						"devicewidth" : 0.0,
						"description" : "",
						"digest" : "",
						"tags" : "",
						"style" : "",
						"subpatcher_template" : "gridded",
						"boxes" : [ 							{
								"box" : 								{
									"id" : "obj-7",
									"maxclass" : "message",
									"numinlets" : 2,
									"numoutlets" : 1,
									"outlettype" : [ "" ],
									"patching_rect" : [ 754.0, 662.0, 61.0, 22.0 ],
									"style" : "",
									"text" : "mute 1, 0"
								}

							}
, 							{
								"box" : 								{
									"fontface" : 0,
									"fontname" : "Arial",
									"fontsize" : 12.0,
									"id" : "obj-4",
									"linecount" : 5,
									"maxclass" : "o.compose",
									"numinlets" : 2,
									"numoutlets" : 1,
									"outlettype" : [ "" ],
									"patching_rect" : [ 457.75, 150.0, 140.0, 78.0 ],
									"saved_bundle_data" : [ 35, 98, 117, 110, 100, 108, 101, 0, 0, 0, 0, 0, 0, 0, 0, 0, 0, 0, 0, 24, 47, 115, 97, 109, 112, 108, 101, 0, 44, 115, 0, 0, 103, 114, 97, 105, 110, 115, 116, 117, 102, 102, 0, 0, 0, 0, 0, 20, 47, 111, 102, 102, 115, 101, 116, 47, 109, 115, 0, 0, 44, 105, 0, 0, 0, 0, 4, 76, 0, 0, 0, 24, 47, 100, 117, 114, 97, 116, 105, 111, 110, 47, 109, 115, 0, 0, 0, 0, 44, 105, 0, 0, 0, 0, 1, 44, 0, 0, 0, 28, 47, 115, 112, 101, 101, 100, 102, 97, 99, 116, 111, 114, 0, 0, 0, 0, 44, 100, 0, 0, 63, -16, 0, 0, 0, 0, 0, 0, 0, 0, 0, 20, 47, 114, 101, 118, 101, 114, 115, 101, 0, 0, 0, 0, 44, 105, 0, 0, 0, 0, 0, 0 ],
									"saved_bundle_length" : 152,
									"text" : "/sample : \"grainstuff\",\n/offset/ms : 1100,\n/duration/ms : 300,\n/speedfactor : 1.,\n/reverse : 0",
									"textcolor" : [ 0.188, 0.188, 0.188, 1.0 ]
								}

							}
, 							{
								"box" : 								{
									"fontname" : "Arial",
									"fontsize" : 12.0,
									"id" : "obj-2",
									"maxclass" : "newobj",
									"numinlets" : 1,
									"numoutlets" : 0,
									"patching_rect" : [ 409.75, 749.0, 37.0, 22.0 ],
									"saved_object_attributes" : 									{
										"attr_comment" : ""
									}
,
									"style" : "",
									"text" : "out 1"
								}

							}
, 							{
								"box" : 								{
									"fontface" : 0,
									"fontname" : "Arial",
									"fontsize" : 12.0,
									"id" : "obj-26",
									"maxclass" : "newobj",
									"numinlets" : 1,
									"numoutlets" : 4,
									"outlettype" : [ "", "", "", "FullPacket" ],
									"patching_rect" : [ 210.0, 395.0, 204.0, 22.0 ],
									"style" : "",
									"text" : "o.route /linelist /sample /duration/ms"
								}

							}
, 							{
								"box" : 								{
									"fontface" : 0,
									"fontname" : "Arial",
									"fontsize" : 12.0,
									"id" : "obj-24",
									"linecount" : 3,
									"maxclass" : "o.expr.codebox",
									"numinlets" : 1,
									"numoutlets" : 2,
									"outlettype" : [ "FullPacket", "FullPacket" ],
									"patching_rect" : [ 210.0, 300.0, 449.0, 59.0 ],
									"text" : "/linelist = if(\n  /reverse == 0, [/offset/ms, 0., /offset/ms + /duration/ms, /duration/ms], [/offset/ms + /duration/ms, 0., /offset/ms, /duration/ms])",
									"textcolor" : [ 0.0, 0.0, 0.0, 1.0 ]
								}

							}
, 							{
								"box" : 								{
									"fontname" : "Arial",
									"fontsize" : 12.0,
									"id" : "obj-29",
									"maxclass" : "newobj",
									"numinlets" : 1,
									"numoutlets" : 2,
									"outlettype" : [ "int", "bang" ],
									"patching_rect" : [ 546.25, 395.0, 51.5, 22.0 ],
									"style" : "",
									"text" : "t 1 b"
								}

							}
, 							{
								"box" : 								{
									"fontname" : "Arial",
									"fontsize" : 12.0,
									"id" : "obj-3",
									"maxclass" : "newobj",
									"numinlets" : 1,
									"numoutlets" : 2,
									"outlettype" : [ "int", "" ],
									"patching_rect" : [ 196.5, 259.0, 32.5, 22.0 ],
									"style" : "",
									"text" : "t 1 l"
								}

							}
, 							{
								"box" : 								{
									"fontname" : "Arial",
									"fontsize" : 12.0,
									"id" : "obj-39",
									"maxclass" : "newobj",
									"numinlets" : 2,
									"numoutlets" : 1,
									"outlettype" : [ "float" ],
									"patching_rect" : [ 578.75, 469.0, 52.25, 22.0 ],
									"style" : "",
									"text" : "f"
								}

							}
, 							{
								"box" : 								{
									"fontname" : "Arial",
									"fontsize" : 12.0,
									"id" : "obj-18",
									"maxclass" : "newobj",
									"numinlets" : 1,
									"numoutlets" : 1,
									"outlettype" : [ "" ],
									"patching_rect" : [ 271.666656, 427.0, 74.0, 22.0 ],
									"style" : "",
									"text" : "prepend set"
								}

							}
, 							{
								"box" : 								{
									"fontname" : "Arial",
									"fontsize" : 12.0,
									"id" : "obj-11",
									"maxclass" : "newobj",
									"numinlets" : 1,
									"numoutlets" : 2,
									"outlettype" : [ "float", "bang" ],
									"patching_rect" : [ 777.0, 749.0, 78.0, 22.0 ],
									"style" : "",
									"text" : "buffer~ nada"
								}

							}
, 							{
								"box" : 								{
									"fontface" : 0,
									"fontname" : "Arial",
									"fontsize" : 12.0,
									"id" : "obj-10",
									"maxclass" : "newobj",
									"numinlets" : 1,
									"numoutlets" : 1,
									"outlettype" : [ "bang" ],
									"patching_rect" : [ 754.0, 623.0, 60.0, 22.0 ],
									"style" : "",
									"text" : "loadbang"
								}

							}
, 							{
								"box" : 								{
									"fontname" : "Arial",
									"fontsize" : 12.0,
									"id" : "obj-5",
									"maxclass" : "newobj",
									"numinlets" : 1,
									"numoutlets" : 2,
									"outlettype" : [ "int", "int" ],
									"patching_rect" : [ 578.75, 749.0, 58.0, 22.0 ],
									"style" : "",
									"text" : "thispoly~"
								}

							}
, 							{
								"box" : 								{
									"fontname" : "Arial",
									"fontsize" : 12.0,
									"id" : "obj-12",
									"maxclass" : "newobj",
									"numinlets" : 2,
									"numoutlets" : 1,
									"outlettype" : [ "signal" ],
									"patching_rect" : [ 206.25, 665.5, 42.0, 22.0 ],
									"style" : "",
									"text" : "*~ 0.2"
								}

							}
, 							{
								"box" : 								{
									"fontname" : "Arial",
									"fontsize" : 12.0,
									"id" : "obj-16",
									"maxclass" : "message",
									"numinlets" : 2,
									"numoutlets" : 1,
									"outlettype" : [ "" ],
									"patching_rect" : [ 578.0, 550.0, 33.0, 22.0 ],
									"style" : "",
									"text" : "0"
								}

							}
, 							{
								"box" : 								{
									"fontname" : "Arial",
									"fontsize" : 12.0,
									"id" : "obj-14",
									"maxclass" : "newobj",
									"numinlets" : 2,
									"numoutlets" : 1,
									"outlettype" : [ "int" ],
									"patching_rect" : [ 578.0, 496.0, 33.0, 22.0 ],
									"style" : "",
									"text" : "- 10"
								}

							}
, 							{
								"box" : 								{
									"fontname" : "Arial",
									"fontsize" : 12.0,
									"id" : "obj-13",
									"maxclass" : "newobj",
									"numinlets" : 2,
									"numoutlets" : 1,
									"outlettype" : [ "bang" ],
									"patching_rect" : [ 578.0, 523.0, 53.0, 22.0 ],
									"style" : "",
									"text" : "delay 0."
								}

							}
, 							{
								"box" : 								{
									"fontname" : "Arial",
									"fontsize" : 12.0,
									"id" : "obj-15",
									"maxclass" : "newobj",
									"numinlets" : 2,
									"numoutlets" : 1,
									"outlettype" : [ "signal" ],
									"patching_rect" : [ 206.25, 635.5, 168.0, 22.0 ],
									"style" : "",
									"text" : "*~ 0"
								}

							}
, 							{
								"box" : 								{
									"fontname" : "Arial",
									"fontsize" : 12.0,
									"id" : "obj-17",
									"maxclass" : "newobj",
									"numinlets" : 5,
									"numoutlets" : 4,
									"outlettype" : [ "signal", "signal", "", "" ],
									"patching_rect" : [ 578.75, 579.0, 175.0, 22.0 ],
									"style" : "",
									"text" : "adsr~ 10 0 1. 10 @retrigger 10"
								}

							}
, 							{
								"box" : 								{
									"fontname" : "Arial",
									"fontsize" : 12.0,
									"id" : "obj-19",
									"maxclass" : "newobj",
									"numinlets" : 1,
									"numoutlets" : 1,
									"outlettype" : [ "" ],
									"patching_rect" : [ 196.5, 203.0, 30.0, 22.0 ],
									"saved_object_attributes" : 									{
										"attr_comment" : ""
									}
,
									"style" : "",
									"text" : "in 1"
								}

							}
, 							{
								"box" : 								{
									"fontname" : "Arial",
									"fontsize" : 12.0,
									"id" : "obj-20",
									"maxclass" : "newobj",
									"numinlets" : 1,
									"numoutlets" : 0,
									"patching_rect" : [ 315.25, 749.0, 43.0, 22.0 ],
									"saved_object_attributes" : 									{
										"attr_comment" : ""
									}
,
									"style" : "",
									"text" : "out~ 1"
								}

							}
, 							{
								"box" : 								{
									"fontname" : "Arial",
									"fontsize" : 12.0,
									"id" : "obj-41",
									"maxclass" : "newobj",
									"numinlets" : 2,
									"numoutlets" : 2,
									"outlettype" : [ "signal", "bang" ],
									"patching_rect" : [ 210.0, 427.0, 36.0, 22.0 ],
									"style" : "",
									"text" : "line~"
								}

							}
, 							{
								"box" : 								{
									"comment" : "",
									"id" : "obj-28",
									"index" : 1,
									"maxclass" : "inlet",
									"numinlets" : 0,
									"numoutlets" : 1,
									"outlettype" : [ "" ],
									"patching_rect" : [ 337.0, 203.0, 25.0, 25.0 ],
									"style" : ""
								}

							}
, 							{
								"box" : 								{
									"comment" : "",
									"id" : "obj-27",
									"index" : 1,
									"maxclass" : "outlet",
									"numinlets" : 1,
									"numoutlets" : 0,
									"patching_rect" : [ 206.25, 749.0, 25.0, 25.0 ],
									"style" : ""
								}

							}
, 							{
								"box" : 								{
									"fontname" : "Arial",
									"fontsize" : 12.0,
									"id" : "obj-33",
									"maxclass" : "newobj",
									"numinlets" : 1,
									"numoutlets" : 2,
									"outlettype" : [ "signal", "bang" ],
									"patching_rect" : [ 210.0, 469.0, 70.0, 22.0 ],
									"style" : "",
									"text" : "play~ nada"
								}

							}
 ],
						"lines" : [ 							{
								"patchline" : 								{
									"destination" : [ "obj-7", 0 ],
									"source" : [ "obj-10", 0 ]
								}

							}
, 							{
								"patchline" : 								{
									"destination" : [ "obj-20", 0 ],
									"order" : 0,
									"source" : [ "obj-12", 0 ]
								}

							}
, 							{
								"patchline" : 								{
									"destination" : [ "obj-27", 0 ],
									"order" : 1,
									"source" : [ "obj-12", 0 ]
								}

							}
, 							{
								"patchline" : 								{
									"destination" : [ "obj-16", 0 ],
									"source" : [ "obj-13", 0 ]
								}

							}
, 							{
								"patchline" : 								{
									"destination" : [ "obj-13", 0 ],
									"source" : [ "obj-14", 0 ]
								}

							}
, 							{
								"patchline" : 								{
									"destination" : [ "obj-12", 0 ],
									"source" : [ "obj-15", 0 ]
								}

							}
, 							{
								"patchline" : 								{
									"destination" : [ "obj-17", 0 ],
									"source" : [ "obj-16", 0 ]
								}

							}
, 							{
								"patchline" : 								{
									"destination" : [ "obj-15", 1 ],
									"order" : 1,
									"source" : [ "obj-17", 0 ]
								}

							}
, 							{
								"patchline" : 								{
									"destination" : [ "obj-5", 0 ],
									"source" : [ "obj-17", 2 ]
								}

							}
, 							{
								"patchline" : 								{
									"destination" : [ "obj-5", 0 ],
									"order" : 0,
									"source" : [ "obj-17", 0 ]
								}

							}
, 							{
								"patchline" : 								{
									"destination" : [ "obj-33", 0 ],
									"source" : [ "obj-18", 0 ]
								}

							}
, 							{
								"patchline" : 								{
									"color" : [ 1.0, 0.8, 0.4, 1.0 ],
									"destination" : [ "obj-3", 0 ],
									"source" : [ "obj-19", 0 ]
								}

							}
, 							{
								"patchline" : 								{
									"color" : [ 1.0, 0.8, 0.4, 1.0 ],
									"destination" : [ "obj-26", 0 ],
									"source" : [ "obj-24", 0 ]
								}

							}
, 							{
								"patchline" : 								{
									"destination" : [ "obj-18", 0 ],
									"source" : [ "obj-26", 1 ]
								}

							}
, 							{
								"patchline" : 								{
									"destination" : [ "obj-39", 1 ],
									"source" : [ "obj-26", 2 ]
								}

							}
, 							{
								"patchline" : 								{
									"destination" : [ "obj-41", 0 ],
									"source" : [ "obj-26", 0 ]
								}

							}
, 							{
								"patchline" : 								{
									"color" : [ 1.0, 0.8, 0.4, 1.0 ],
									"destination" : [ "obj-3", 0 ],
									"source" : [ "obj-28", 0 ]
								}

							}
, 							{
								"patchline" : 								{
									"destination" : [ "obj-17", 0 ],
									"source" : [ "obj-29", 0 ]
								}

							}
, 							{
								"patchline" : 								{
									"destination" : [ "obj-39", 0 ],
									"source" : [ "obj-29", 1 ]
								}

							}
, 							{
								"patchline" : 								{
									"color" : [ 1.0, 0.8, 0.4, 1.0 ],
									"destination" : [ "obj-24", 0 ],
									"source" : [ "obj-3", 1 ]
								}

							}
, 							{
								"patchline" : 								{
									"destination" : [ "obj-29", 0 ],
									"source" : [ "obj-3", 0 ]
								}

							}
, 							{
								"patchline" : 								{
									"destination" : [ "obj-15", 0 ],
									"source" : [ "obj-33", 0 ]
								}

							}
, 							{
								"patchline" : 								{
									"destination" : [ "obj-14", 0 ],
									"source" : [ "obj-39", 0 ]
								}

							}
, 							{
								"patchline" : 								{
									"color" : [ 1.0, 0.8, 0.4, 1.0 ],
									"destination" : [ "obj-24", 0 ],
									"source" : [ "obj-4", 0 ]
								}

							}
, 							{
								"patchline" : 								{
									"destination" : [ "obj-33", 0 ],
									"source" : [ "obj-41", 0 ]
								}

							}
, 							{
								"patchline" : 								{
									"destination" : [ "obj-5", 0 ],
									"source" : [ "obj-7", 0 ]
								}

							}
 ]
					}
,
					"patching_rect" : [ 1480.5, 735.0, 99.0, 22.0 ],
					"saved_object_attributes" : 					{
						"description" : "",
						"digest" : "",
						"globalpatchername" : "",
						"style" : "",
						"tags" : ""
					}
,
					"style" : "",
					"text" : "p previous_grain"
				}

			}
, 			{
				"box" : 				{
					"fontface" : 0,
					"fontsize" : 10.0,
					"id" : "obj-5",
					"linecount" : 8,
					"maxclass" : "o.expr.codebox",
					"numinlets" : 1,
					"numoutlets" : 2,
					"outlettype" : [ "FullPacket", "FullPacket" ],
					"patching_rect" : [ 90.0, 129.0, 241.0, 109.0 ],
					"text" : "/1/metro/on = /touch/state[[0]], \n/1/start/phase = /touch/move/x[[0]], \n/1/gain = /touch/move/y[[0]] * 2,\n/2/metro/on = /touch/state[[1]], \n/2/start/phase = /touch/move/x[[1]], \n/2/gain = /touch/move/y[[1]] * 2,\ndelete(/touch/state), \ndelete(/touch/move/x)",
					"textcolor" : [ 0.0, 0.0, 0.0, 1.0 ]
				}

			}
, 			{
				"box" : 				{
					"id" : "obj-1",
					"maxclass" : "newobj",
					"numinlets" : 0,
					"numoutlets" : 1,
					"outlettype" : [ "" ],
					"patching_rect" : [ 90.0, 41.0, 154.0, 22.0 ],
					"style" : "",
					"text" : "m158.o.io.lemur.multitouch"
				}

			}
 ],
		"lines" : [ 			{
				"patchline" : 				{
					"destination" : [ "obj-15", 0 ],
					"order" : 4,
					"source" : [ "obj-1", 0 ]
				}

			}
, 			{
				"patchline" : 				{
					"destination" : [ "obj-2", 0 ],
					"order" : 1,
					"source" : [ "obj-1", 0 ]
				}

			}
, 			{
				"patchline" : 				{
					"destination" : [ "obj-27", 0 ],
					"order" : 3,
					"source" : [ "obj-1", 0 ]
				}

			}
, 			{
				"patchline" : 				{
					"destination" : [ "obj-56", 0 ],
					"order" : 0,
					"source" : [ "obj-1", 0 ]
				}

			}
, 			{
				"patchline" : 				{
					"destination" : [ "obj-6", 0 ],
					"order" : 2,
					"source" : [ "obj-1", 0 ]
				}

			}
, 			{
				"patchline" : 				{
					"destination" : [ "obj-11", 0 ],
					"source" : [ "obj-10", 0 ]
				}

			}
, 			{
				"patchline" : 				{
					"destination" : [ "obj-74", 0 ],
					"source" : [ "obj-12", 0 ]
				}

			}
, 			{
				"patchline" : 				{
					"destination" : [ "obj-74", 0 ],
					"source" : [ "obj-13", 0 ]
				}

			}
, 			{
				"patchline" : 				{
					"destination" : [ "obj-34", 0 ],
					"source" : [ "obj-17", 0 ]
				}

			}
, 			{
				"patchline" : 				{
					"destination" : [ "obj-7", 0 ],
					"source" : [ "obj-2", 0 ]
				}

			}
, 			{
				"patchline" : 				{
					"destination" : [ "obj-5", 0 ],
					"source" : [ "obj-27", 0 ]
				}

			}
, 			{
				"patchline" : 				{
					"destination" : [ "obj-46", 1 ],
					"source" : [ "obj-31", 1 ]
				}

			}
, 			{
				"patchline" : 				{
					"destination" : [ "obj-46", 0 ],
					"source" : [ "obj-31", 0 ]
				}

			}
, 			{
				"patchline" : 				{
					"destination" : [ "obj-31", 0 ],
					"source" : [ "obj-33", 0 ]
				}

			}
, 			{
				"patchline" : 				{
					"destination" : [ "obj-31", 0 ],
					"source" : [ "obj-34", 0 ]
				}

			}
, 			{
				"patchline" : 				{
					"destination" : [ "obj-62", 4 ],
					"midpoints" : [ 1731.5, 495.0, 1746.0, 495.0, 1746.0, 355.0, 1731.5, 355.0 ],
					"source" : [ "obj-37", 5 ]
				}

			}
, 			{
				"patchline" : 				{
					"destination" : [ "obj-47", 1 ],
					"source" : [ "obj-46", 1 ]
				}

			}
, 			{
				"patchline" : 				{
					"destination" : [ "obj-47", 0 ],
					"source" : [ "obj-46", 0 ]
				}

			}
, 			{
				"patchline" : 				{
					"destination" : [ "obj-17", 0 ],
					"source" : [ "obj-5", 0 ]
				}

			}
, 			{
				"patchline" : 				{
					"destination" : [ "obj-57", 0 ],
					"source" : [ "obj-56", 0 ]
				}

			}
, 			{
				"patchline" : 				{
					"destination" : [ "obj-37", 0 ],
					"order" : 0,
					"source" : [ "obj-61", 0 ]
				}

			}
, 			{
				"patchline" : 				{
					"destination" : [ "obj-62", 0 ],
					"order" : 1,
					"source" : [ "obj-61", 0 ]
				}

			}
, 			{
				"patchline" : 				{
					"destination" : [ "obj-73", 0 ],
					"source" : [ "obj-65", 0 ]
				}

			}
, 			{
				"patchline" : 				{
					"destination" : [ "obj-70", 0 ],
					"source" : [ "obj-66", 0 ]
				}

			}
, 			{
				"patchline" : 				{
					"destination" : [ "obj-66", 0 ],
					"source" : [ "obj-68", 0 ]
				}

			}
, 			{
				"patchline" : 				{
					"destination" : [ "obj-65", 0 ],
					"source" : [ "obj-74", 0 ]
				}

			}
, 			{
				"patchline" : 				{
					"destination" : [ "obj-47", 0 ],
					"source" : [ "obj-8", 0 ]
				}

			}
, 			{
				"patchline" : 				{
					"destination" : [ "obj-74", 0 ],
					"source" : [ "obj-9", 0 ]
				}

			}
 ],
		"parameters" : 		{
			"obj-46" : [ "live.gain~", "live.gain~", 0 ]
		}
,
		"dependency_cache" : [ 			{
				"name" : "m158.o.io.lemur.multitouch.maxpat",
				"bootpath" : "~/Documents/Max 7/Packages/Music-and-Computing/patchers/io/lemur",
				"patcherrelativepath" : "../../../../Music-and-Computing/patchers/io/lemur",
				"type" : "JSON",
				"implicit" : 1
			}
, 			{
				"name" : "grainplay.maxpat",
				"bootpath" : "~/Documents/Max 7/Packages/CNMAT-ODOT-SS/patchers",
				"patcherrelativepath" : "../../../patchers",
				"type" : "JSON",
				"implicit" : 1
			}
, 			{
				"name" : "o.gather.maxpat",
				"bootpath" : "~/Documents/Max 7/Packages/odot/patchers/namespace",
				"patcherrelativepath" : "../../../../odot/patchers/namespace",
				"type" : "JSON",
				"implicit" : 1
			}
, 			{
				"name" : "o.righttoleft.maxpat",
				"bootpath" : "~/Documents/Max 7/Packages/odot/patchers/ordering",
				"patcherrelativepath" : "../../../../odot/patchers/ordering",
				"type" : "JSON",
				"implicit" : 1
			}
, 			{
				"name" : "o.genrand.maxpat",
				"bootpath" : "~/Documents/Max 7/Packages/CNMAT-ODOT-SS/patchers",
				"patcherrelativepath" : "../../../patchers",
				"type" : "JSON",
				"implicit" : 1
			}
, 			{
				"name" : "o.collect.mxo",
				"type" : "iLaX"
			}
, 			{
				"name" : "o.route.mxo",
				"type" : "iLaX"
			}
, 			{
				"name" : "o.union.mxo",
				"type" : "iLaX"
			}
, 			{
				"name" : "o.expr.codebox.mxo",
				"type" : "iLaX"
			}
, 			{
				"name" : "o.compose.mxo",
				"type" : "iLaX"
			}
, 			{
				"name" : "o.pack.mxo",
				"type" : "iLaX"
			}
, 			{
				"name" : "o.intersection.mxo",
				"type" : "iLaX"
			}
, 			{
				"name" : "o.difference.mxo",
				"type" : "iLaX"
			}
, 			{
				"name" : "o.select.mxo",
				"type" : "iLaX"
			}
, 			{
				"name" : "o.display.mxo",
				"type" : "iLaX"
			}
, 			{
				"name" : "o.var.mxo",
				"type" : "iLaX"
			}
 ],
		"autosave" : 0,
		"bgfillcolor_type" : "gradient",
		"bgfillcolor_color1" : [ 0.376471, 0.384314, 0.4, 1.0 ],
		"bgfillcolor_color2" : [ 0.290196, 0.309804, 0.301961, 1.0 ],
		"bgfillcolor_color" : [ 0.290196, 0.309804, 0.301961, 1.0 ],
		"bgfillcolor_angle" : 270.0,
		"bgfillcolor_proportion" : 0.39
	}

}
